# xmcd
#
# Track frame offsets:
#	150
#	23027
#	50078
#	74281
#	86764
#	122541
#	142016
#
# Disc length: 2278 seconds
#
# Revision: 1
# Processed by: cddbd v1.5.1PL0 Copyright (c) Steve Scherf et al.
# Submitted via: audiograbber 1.83.01
#
DISCID=6008e407
DTITLE=Alvaro Pena-Rojas - Drinking my own sperm
DYEAR=1900
DGENRE=
TTITLE0=Latino America
TTITLE1=Palido Sol
TTITLE2=Drinkin My Own Sperm
TTITLE3=Three Trees
TTITLE4=The Whip of Indifference
TTITLE5=Valparaiso
TTITLE6=Lost for Words
EXTD=
EXTT0=\n
EXTT1=
EXTT2=
EXTT3=
EXTT4=
EXTT5=
EXTT6=
PLAYORDER=
